<svg id="Layer_1" data-name="Layer 1" xmlns="http://www.w3.org/2000/svg" viewBox="0 0 1079 724.25"><defs><style>.cls-1{fill:#fff;}</style></defs><title>daging logo</title><path class="cls-1" d="M889.81,392.33c-3.34,8.77-3,18.2-5,27.24Q850.22,574.51,700.41,626.71c-25.52,8.93-52.15,12.71-79.22,12.72-73.8,0-147.6.67-221.38-.22C293.69,637.93,201,555.46,186.15,450.41,169.73,334.31,241.08,227.86,354,200a189.74,189.74,0,0,1,42.21-5.93c8.82-.15,15.27-3.48,21-9.77a272.85,272.85,0,0,1,71.33-55.68C601,67.16,743.21,94,825.34,192.2c36.22,43.3,57.46,92.89,63.12,149.11.1,1.08-.16,2.35,1.35,2.74ZM517.67,572.7q47.93,0,95.86,0a229.5,229.5,0,0,0,44.55-4.05c114-22.6,186.57-137.22,158.47-250.37-26.47-106.59-133.63-173.8-240.63-151Q511.24,181,466.55,229.57c-14.11,15.37-30.76,26.22-51.44,29.77-10.38,1.79-21.07,1.65-31.52,3.14-89.38,12.83-149.53,101-128.94,188.82,17,72.37,79,121.05,154.75,121.37C445.49,572.82,481.58,572.7,517.67,572.7Z"/><path class="cls-1" d="M617.75,204.39a187,187,0,0,1,26.11,1.79c5.11.62,7.62,2.6,8.67,8.15,7,37.19,14.5,74.3,21.78,111.45,11.25,57.41,22.37,114.84,33.88,172.2.94,4.73-.56,6.51-4,8.59a175.9,175.9,0,0,1-54,21.48c-5.35,1.16-6.07-.82-6.86-4.88q-9.07-47-18.34-93.9-21-106.69-42.17-213.36c-1.25-6.22-.29-8.49,6.18-9.28C598.53,205.46,608.08,204.27,617.75,204.39Z"/><path class="cls-1" d="M602.8,531.31c-22.39,0-44.19-.1-66,.08-4.13,0-4.08-2.44-4.63-5.21q-10.8-55-21.71-110c-9-45.66-17.94-91.35-27.08-137-1-4.95-.2-8.14,3.66-11.92,14.59-14.31,28.4-29.43,46.46-39.66,2.57-1.46,5.15-2.9,8.57-4.83C562.37,325.86,582.53,428.29,602.8,531.31Z"/><path class="cls-1" d="M444.22,294.23c2.76,13.85,5.53,27.51,8.22,41.19Q470.88,429,489.3,522.48c1.74,8.84,1.83,8.83-7,8.83-18.16,0-36.32-.21-54.48.13-5.12.09-7-1.4-7.95-6.47-10.57-54.74-21.4-109.43-32.15-164.14-3.28-16.66-6.32-33.36-9.89-50-.93-4.3.28-5.5,4.16-6.31,9-1.9,18.22-2.35,27.38-2.88C421.15,301,432.47,298.3,444.22,294.23Z"/><path class="cls-1" d="M696.57,225c93,52.33,109.13,172,48.17,244.75C728.67,388.13,712.71,307,696.57,225Z"/><path class="cls-1" d="M377.81,527.71c-42.56-13.21-71.36-40.08-81.95-83.07-11.08-45,1.84-83.79,36.37-115,5.87-5.32,6-5.2,7.56,2.46q19,96.09,38,192.19A21.7,21.7,0,0,1,377.81,527.71Z"/></svg>