<svg id="Layer_1" data-name="Layer 1" xmlns="http://www.w3.org/2000/svg" viewBox="0 0 1538.06 828.33"><defs><style>.cls-1{fill:#fff;}.cls-2{fill:none;}</style></defs><title>MPOK JUDES-01 YES</title><path class="cls-1" d="M775,171.34c-.43,29.11-4.7,57.45-16.63,84.27-7,15.84-16.4,30.06-29.85,41.28a68.68,68.68,0,0,1-22.65,12.86c-1.69.56-2.15,1.36-2.09,3.09q1,32,1.93,64.07T707.57,441q1.15,38.65,2.31,77.3.93,31.65,1.81,63.31,1.21,41.82,2.44,83.65,1,32.67,2,65.33c.34,11.1.48,22.21,1,33.31C718,780.18,706.88,794.45,691,799c-17.2,5-35.55-2.07-44-16.65-4.05-7-4.66-14.49-4.37-22.35.74-20.17,1.2-40.34,1.8-60.51q1.43-48.18,2.88-96.36,1.14-38.65,2.23-77.3,1.43-48,2.9-96.1c.6-20.09,1.15-40.18,1.76-60.26.56-18.56,1.12-37.12,1.79-55.67.08-2.37-.47-3.5-2.89-4.35-14.88-5.22-26.46-15-36-27.23-12.31-15.78-20.08-33.8-25-53-9.51-37.43-10.24-75-.18-112.46,6.41-23.83,16.88-45.65,34.28-63.58C640.89,38,658.35,28.32,680.08,28.32c17.59,0,32.7,6.77,45.95,17.93,16.78,14.13,27.82,32.24,35.75,52.42,8.44,21.47,12.41,43.82,12.94,66.83C774.76,167.45,774.89,169.39,775,171.34Z"/><path class="cls-1" d="M925.44,284.08q-1.12,38.52-2.24,77-1.07,36.36-2.12,72.72-1.1,36.62-2.24,73.22c0,1.22-.14,2.19,1.53,2.64,28.3,7.59,44.31,27.06,52.1,54.3,4.18,14.6,4.64,29.56,4,44.65-1,23.89-1.64,47.79-2.43,71.69q-1.49,45.26-3,90.51c-.13,3.81-.18,7.63-.44,11.43a19.39,19.39,0,0,1-17.6,18.1c-4.46.46-6.1-1-6.1-5.51v-167c0-2.38-.06-4.73-1.24-6.92a9,9,0,0,0-8.81-4.86,9.19,9.19,0,0,0-8,6.83,16.82,16.82,0,0,0-.35,4.3V790.41c0,7.48-2.6,10.07-10.1,10.08-2.2,0-4.41.06-6.62,0-4.73-.15-7.73-3-8.16-7.72-.09-1-.05-2-.05-3q0-81.45,0-162.88c0-3.1-.53-5.9-2.86-8.13a8.43,8.43,0,0,0-9.38-2,8.77,8.77,0,0,0-5.85,7.67,23.74,23.74,0,0,0,0,2.8c0,53.78-.08,107.56.07,161.35,0,8.38-2.15,12.73-12.19,12-1.68-.12-3.39,0-5.08,0a7.75,7.75,0,0,1-7.72-7.85c0-.76,0-1.53,0-2.29q0-81.57,0-163.13a12.29,12.29,0,0,0-1.33-6.39,8.94,8.94,0,0,0-9.41-4.57,9.07,9.07,0,0,0-7.5,7.92,34.67,34.67,0,0,0-.11,3.82V793.92c0,5.79-1.72,7.23-7.47,6.29a19.47,19.47,0,0,1-16.34-18.49c-.79-22.54-1.5-45.09-2.26-67.63-1.26-37.45-2.64-74.91-3.74-112.37-.6-20.38,2.43-40.11,12.57-58.22,9.55-17,23.7-28.32,42.6-33.45,2-.55,2.79-1.27,2.71-3.55-.77-22.88-1.38-45.76-2.07-68.64q-1.39-46.78-2.85-93.56-1.18-40.43-2.29-80.85t-2.39-80.6c-.59-20.17-1.13-40.34-1.73-60.51-.54-18.39-.55-36.81-1.82-55.15-1.82-26.45,22.68-43.73,46.61-37.87,14.27,3.5,23.72,12.3,27.38,26.78,1.44,5.68.63,11.49.49,17.23-.41,16.11-1,32.21-1.43,48.31Q929,164,927.78,206.28q-1.17,38.91-2.38,77.8Z"/><path class="cls-1" d="M332.85,171.34c-.43,29.11-4.71,57.45-16.63,84.27-7.05,15.84-16.4,30.06-29.85,41.28a68.68,68.68,0,0,1-22.65,12.86c-1.69.56-2.15,1.36-2.09,3.09q1,32,1.93,64.07T265.44,441q1.15,38.65,2.31,77.3.93,31.65,1.81,63.31,1.2,41.82,2.44,83.65,1,32.67,2,65.33c.34,11.1.48,22.21,1,33.31.82,16.3-10.26,30.57-26.17,35.14-17.2,5-35.55-2.07-44-16.65-4.06-7-4.66-14.49-4.37-22.35.74-20.17,1.2-40.34,1.79-60.51q1.44-48.18,2.89-96.36,1.14-38.65,2.23-77.3,1.42-48,2.89-96.1.9-30.13,1.77-60.26c.56-18.56,1.11-37.12,1.78-55.67.09-2.37-.46-3.5-2.88-4.35-14.88-5.22-26.46-15-36-27.23-12.31-15.78-20.08-33.8-25-53-9.52-37.43-10.24-75-.18-112.46C156.17,92.92,166.64,71.1,184,53.17,198.76,38,216.22,28.32,238,28.32c17.59,0,32.7,6.77,45.95,17.93,16.77,14.13,27.82,32.24,35.75,52.42,8.44,21.47,12.41,43.82,12.94,66.83C332.63,167.45,332.76,169.39,332.85,171.34Z"/><path class="cls-1" d="M483.3,284.08q-1.11,38.52-2.24,77Q480,397.48,479,433.84q-1.09,36.62-2.24,73.22c0,1.22-.14,2.19,1.53,2.64,28.3,7.59,44.31,27.06,52.1,54.3,4.18,14.6,4.64,29.56,4,44.65-1,23.89-1.64,47.79-2.43,71.69q-1.49,45.26-3,90.51c-.13,3.81-.18,7.63-.44,11.43a19.39,19.39,0,0,1-17.6,18.1c-4.46.46-6.1-1-6.1-5.51q0-83.48,0-167c0-2.38-.06-4.73-1.24-6.92a9,9,0,0,0-8.81-4.86,9.18,9.18,0,0,0-8,6.83,16.82,16.82,0,0,0-.35,4.3V790.41c0,7.48-2.6,10.07-10.1,10.08-2.21,0-4.41.06-6.62,0-4.73-.15-7.74-3-8.16-7.72-.09-1-.05-2-.05-3q0-81.45,0-162.88c0-3.1-.53-5.9-2.86-8.13a8.44,8.44,0,0,0-9.39-2,8.77,8.77,0,0,0-5.84,7.67,23.72,23.72,0,0,0,0,2.8c0,53.78-.07,107.56.08,161.35,0,8.38-2.16,12.73-12.19,12-1.69-.12-3.39,0-5.09,0a7.75,7.75,0,0,1-7.71-7.85c0-.76,0-1.53,0-2.29q0-81.57,0-163.13a12.29,12.29,0,0,0-1.33-6.39,8.94,8.94,0,0,0-9.41-4.57,9.06,9.06,0,0,0-7.5,7.92,34.67,34.67,0,0,0-.11,3.82q0,83,0,165.93c0,5.79-1.71,7.23-7.47,6.29a19.47,19.47,0,0,1-16.33-18.49q-1.18-33.81-2.26-67.63c-1.26-37.45-2.64-74.91-3.74-112.37-.6-20.38,2.43-40.11,12.57-58.22,9.55-17,23.7-28.32,42.6-33.45,2.05-.55,2.78-1.27,2.71-3.55-.77-22.88-1.38-45.76-2.07-68.64q-1.41-46.78-2.85-93.56c-.8-26.95-1.51-53.9-2.29-80.85s-1.61-53.73-2.4-80.6q-.89-30.25-1.72-60.51c-.54-18.39-.55-36.81-1.82-55.15-1.82-26.45,22.68-43.73,46.61-37.87,14.27,3.5,23.72,12.3,27.38,26.78,1.43,5.68.63,11.49.49,17.23-.42,16.11-1,32.21-1.44,48.31q-1.23,42.31-2.46,84.64-1.15,38.91-2.38,77.8Z"/><path class="cls-1" d="M1193.82,171.34c-.43,29.11-4.71,57.45-16.63,84.27-7,15.84-16.4,30.06-29.85,41.28a68.68,68.68,0,0,1-22.65,12.86c-1.69.56-2.15,1.36-2.1,3.09q1,32,1.94,64.07t1.88,64.07q1.15,38.65,2.31,77.3.93,31.65,1.81,63.31,1.2,41.82,2.44,83.65,1,32.67,2,65.33c.33,11.1.47,22.21,1,33.31.83,16.3-10.25,30.57-26.16,35.14-17.2,5-35.55-2.07-44-16.65-4-7-4.65-14.49-4.37-22.35.75-20.17,1.2-40.34,1.8-60.51q1.42-48.18,2.89-96.36,1.14-38.65,2.23-77.3,1.42-48,2.89-96.1.9-30.13,1.76-60.26c.56-18.56,1.12-37.12,1.79-55.67.09-2.37-.46-3.5-2.88-4.35-14.88-5.22-26.46-15-36-27.23-12.3-15.78-20.07-33.8-25-53-9.52-37.43-10.25-75-.18-112.46,6.4-23.83,16.88-45.65,34.28-63.58,14.72-15.17,32.18-24.85,53.91-24.85,17.59,0,32.7,6.77,45.95,17.93,16.77,14.13,27.82,32.24,35.75,52.42,8.44,21.47,12.41,43.82,12.94,66.83C1193.6,167.45,1193.73,169.39,1193.82,171.34Z"/><path class="cls-1" d="M1344.27,284.08q-1.11,38.52-2.24,77-1,36.36-2.11,72.72-1.1,36.62-2.25,73.22c0,1.22-.13,2.19,1.54,2.64,28.3,7.59,44.31,27.06,52.1,54.3,4.18,14.6,4.64,29.56,4,44.65-1,23.89-1.63,47.79-2.42,71.69q-1.5,45.26-3,90.51c-.13,3.81-.18,7.63-.45,11.43a19.38,19.38,0,0,1-17.59,18.1c-4.46.46-6.1-1-6.1-5.51q0-83.48,0-167c0-2.38-.06-4.73-1.25-6.92a9,9,0,0,0-8.8-4.86,9.21,9.21,0,0,0-8,6.83,17.27,17.27,0,0,0-.34,4.3V790.41c0,7.48-2.6,10.07-10.1,10.08-2.21,0-4.42.06-6.62,0-4.73-.15-7.74-3-8.16-7.72-.09-1,0-2,0-3q0-81.45,0-162.88c0-3.1-.52-5.9-2.85-8.13a8.44,8.44,0,0,0-9.39-2,8.77,8.77,0,0,0-5.84,7.67,23.72,23.72,0,0,0,0,2.8c0,53.78-.07,107.56.08,161.35,0,8.38-2.16,12.73-12.19,12-1.69-.12-3.39,0-5.09,0a7.77,7.77,0,0,1-7.72-7.85c0-.76,0-1.53,0-2.29q0-81.57,0-163.13a12.28,12.28,0,0,0-1.32-6.39,8.94,8.94,0,0,0-9.42-4.57,9.06,9.06,0,0,0-7.49,7.92,32.37,32.37,0,0,0-.11,3.82q0,83,0,165.93c0,5.79-1.71,7.23-7.47,6.29a19.49,19.49,0,0,1-16.34-18.49q-1.17-33.81-2.25-67.63c-1.26-37.45-2.64-74.91-3.74-112.37-.6-20.38,2.42-40.11,12.57-58.22,9.55-17,23.69-28.32,42.6-33.45,2-.55,2.78-1.27,2.71-3.55-.78-22.88-1.38-45.76-2.07-68.64q-1.41-46.78-2.85-93.56c-.8-26.95-1.51-53.9-2.29-80.85s-1.61-53.73-2.4-80.6q-.88-30.25-1.72-60.51c-.54-18.39-.55-36.81-1.82-55.15-1.82-26.45,22.68-43.73,46.6-37.87,14.28,3.5,23.73,12.3,27.39,26.78,1.43,5.68.63,11.49.48,17.23-.41,16.11-1,32.21-1.43,48.31q-1.24,42.31-2.46,84.64-1.15,38.91-2.38,77.8Z"/><rect class="cls-2" x="241.68" y="-31.85" width="1079" height="965.96"/></svg>