<svg id="Layer_1" data-name="Layer 1" xmlns="http://www.w3.org/2000/svg" viewBox="0 0 823.25 1178.97"><defs><style>.cls-1{fill:#fff;}</style></defs><title>garpu pertama sendok keduia</title><path class="cls-1" d="M442.51,491.57q-1.12,38.52-2.24,77.05-1.06,36.36-2.12,72.71-1.09,36.61-2.24,73.22c0,1.22-.14,2.2,1.53,2.64,28.3,7.59,44.31,27.07,52.11,54.3,4.17,14.6,4.63,29.56,4,44.65-1,23.89-1.64,47.79-2.43,71.69q-1.49,45.26-3,90.51c-.12,3.81-.17,7.63-.44,11.44a19.38,19.38,0,0,1-17.6,18.09c-4.45.47-6.1-1-6.1-5.5v-167c0-2.39,0-4.74-1.24-6.93a9.06,9.06,0,0,0-8.8-4.86,9.19,9.19,0,0,0-8,6.84,16.78,16.78,0,0,0-.35,4.3V997.9c0,7.48-2.6,10.08-10.1,10.09-2.2,0-4.41,0-6.61,0-4.73-.15-7.74-3-8.17-7.72-.09-1-.05-2-.05-3q0-81.44,0-162.88c0-3.09-.53-5.9-2.86-8.13a8.41,8.41,0,0,0-9.38-2,8.74,8.74,0,0,0-5.85,7.66,23.76,23.76,0,0,0,0,2.8c0,53.78-.08,107.57.07,161.35,0,8.38-2.15,12.73-12.18,12-1.69-.12-3.4,0-5.09,0a7.75,7.75,0,0,1-7.72-7.85c0-.76,0-1.52,0-2.29q0-81.55,0-163.13a12.31,12.31,0,0,0-1.33-6.39,8.92,8.92,0,0,0-9.41-4.56,9.07,9.07,0,0,0-7.5,7.92,34.56,34.56,0,0,0-.11,3.81v165.93c0,5.79-1.72,7.23-7.47,6.29a19.47,19.47,0,0,1-16.34-18.49c-.79-22.54-1.5-45.08-2.26-67.63-1.26-37.45-2.64-74.9-3.74-112.36-.6-20.39,2.43-40.12,12.57-58.22,9.55-17,23.7-28.33,42.61-33.46,2.05-.55,2.78-1.27,2.7-3.55-.77-22.88-1.38-45.76-2.07-68.64q-1.39-46.77-2.85-93.55-1.19-40.44-2.29-80.86t-2.39-80.6c-.59-20.17-1.13-40.34-1.73-60.5-.54-18.39-.55-36.82-1.81-55.16-1.83-26.44,22.67-43.72,46.6-37.86,14.27,3.49,23.72,12.29,27.38,26.77,1.44,5.69.64,11.49.49,17.24-.41,16.1-1,32.2-1.43,48.3q-1.24,42.33-2.46,84.65-1.16,38.89-2.38,77.79Z"/></svg>