<svg id="Layer_1" data-name="Layer 1" xmlns="http://www.w3.org/2000/svg" viewBox="0 0 720.07 1178.97"><defs><style>.cls-1{fill:#fff;}.cls-2{fill:none;}</style></defs><title>garpu pertama sendok keduia</title><path class="cls-1" d="M455.28,378.76c-.43,29.11-4.71,57.45-16.63,84.27-7,15.84-16.4,30.06-29.85,41.28a68.68,68.68,0,0,1-22.65,12.86c-1.69.56-2.15,1.36-2.1,3.1q1.05,32,1.94,64.06t1.88,64.08q1.15,38.64,2.31,77.29.93,31.66,1.81,63.31,1.2,41.84,2.44,83.65,1,32.67,2,65.33c.34,11.11.48,22.22,1,33.31.82,16.3-10.26,30.57-26.17,35.15-17.2,4.94-35.55-2.08-44-16.66-4.06-7-4.66-14.49-4.37-22.35.74-20.16,1.2-40.34,1.79-60.51q1.44-48.18,2.89-96.36,1.14-38.64,2.23-77.3,1.43-48,2.89-96.1.9-30.13,1.77-60.26c.56-18.56,1.11-37.11,1.78-55.67.09-2.37-.46-3.5-2.88-4.35-14.88-5.22-26.46-14.95-36-27.23-12.31-15.78-20.08-33.79-25-53-9.52-37.43-10.24-75-.18-112.45,6.41-23.84,16.88-45.66,34.28-63.59,14.72-15.17,32.18-24.85,53.91-24.85,17.59,0,32.7,6.77,45.95,17.93,16.77,14.13,27.82,32.25,35.75,52.42,8.44,21.47,12.41,43.82,12.94,66.83C455.06,374.87,455.19,376.82,455.28,378.76Z"/><rect class="cls-2" x="281.94" y="-758.55" width="1079" height="965.96"/></svg>